<?xml version="1.0" encoding="UTF-8" standalone="no"?><svg xmlns="http://www.w3.org/2000/svg" xmlns:xlink="http://www.w3.org/1999/xlink" fill="#ffffff" height="246.7" preserveAspectRatio="xMidYMid meet" version="1" viewBox="526.3 876.6 947.5 246.7" width="947.5" zoomAndPan="magnify"><g id="change1_1"><path d="M 541.46875 953.96875 C 541.769531 952.570312 542.054688 951.210938 542.429688 949.859375 L 543.613281 945.898438 C 544.253906 943.289062 545.425781 940.828125 546.230469 938.398438 C 548.351562 933.628906 550.585938 929.179688 553.28125 925.039062 C 556.085938 920.988281 558.988281 917.089844 562.417969 913.640625 C 569.21875 906.730469 577.203125 900.988281 586.671875 896.769531 L 588.449219 895.929688 L 590.285156 895.230469 C 591.523438 894.789062 592.769531 894.261719 594.046875 893.800781 C 596.621094 893.109375 599.273438 892.058594 602.050781 891.449219 C 604.824219 890.738281 607.695312 890.199219 610.699219 889.691406 C 610.730469 889.691406 610.761719 889.679688 610.789062 889.679688 C 614.34375 889.121094 615.285156 884.359375 612.128906 882.640625 C 609.148438 881.011719 605.945312 879.730469 602.636719 878.738281 C 599.347656 877.738281 595.941406 877.320312 592.460938 876.859375 C 590.71875 876.648438 588.980469 876.730469 587.214844 876.691406 L 584.558594 876.691406 C 583.675781 876.71875 582.804688 876.859375 581.921875 876.941406 C 567.738281 878.25 553.929688 885.179688 543.820312 895.628906 C 538.707031 900.828125 534.695312 907.019531 531.605469 913.550781 C 528.617188 920.160156 526.925781 927.25 526.332031 934.308594 C 526.257812 936.078125 526.304688 937.859375 526.308594 939.621094 C 526.332031 940.5 526.300781 941.359375 526.371094 942.238281 C 526.449219 943.109375 526.589844 943.980469 526.699219 944.851562 C 526.964844 946.578125 527.121094 948.289062 527.492188 949.980469 C 527.882812 951.660156 528.3125 953.320312 528.84375 954.949219 C 529.71875 957.578125 530.785156 960.140625 532.058594 962.558594 C 534.019531 966.28125 539.632812 965.359375 540.203125 961.191406 C 540.546875 958.699219 540.957031 956.308594 541.46875 953.96875 Z M 1459.800781 961.191406 C 1460.371094 965.359375 1465.980469 966.28125 1467.941406 962.558594 C 1469.21875 960.140625 1470.28125 957.578125 1471.160156 954.949219 C 1471.691406 953.320312 1472.121094 951.660156 1472.511719 949.980469 C 1472.878906 948.289062 1473.039062 946.578125 1473.300781 944.851562 C 1473.410156 943.980469 1473.550781 943.109375 1473.628906 942.238281 C 1473.699219 941.359375 1473.671875 940.5 1473.691406 939.621094 C 1473.699219 937.859375 1473.738281 936.078125 1473.671875 934.308594 C 1473.070312 927.25 1471.378906 920.160156 1468.390625 913.550781 C 1465.308594 907.019531 1461.289062 900.828125 1456.179688 895.628906 C 1446.070312 885.179688 1432.261719 878.25 1418.078125 876.941406 C 1417.199219 876.859375 1416.328125 876.71875 1415.441406 876.691406 L 1412.78125 876.691406 C 1411.019531 876.730469 1409.28125 876.648438 1407.539062 876.859375 C 1404.058594 877.320312 1400.648438 877.738281 1397.359375 878.738281 C 1394.050781 879.730469 1390.851562 881.011719 1387.871094 882.640625 C 1384.71875 884.359375 1385.660156 889.121094 1389.210938 889.679688 C 1389.238281 889.679688 1389.269531 889.691406 1389.300781 889.691406 C 1392.308594 890.199219 1395.179688 890.738281 1397.949219 891.449219 C 1400.71875 892.058594 1403.378906 893.109375 1405.949219 893.800781 C 1407.230469 894.261719 1408.480469 894.789062 1409.710938 895.230469 L 1411.550781 895.929688 L 1413.328125 896.769531 C 1422.800781 900.988281 1430.78125 906.730469 1437.578125 913.640625 C 1441.011719 917.089844 1443.910156 920.988281 1446.71875 925.039062 C 1449.421875 929.179688 1451.648438 933.628906 1453.769531 938.398438 C 1454.570312 940.828125 1455.75 943.289062 1456.378906 945.898438 L 1457.570312 949.859375 C 1457.949219 951.210938 1458.230469 952.570312 1458.53125 953.96875 C 1459.039062 956.308594 1459.449219 958.699219 1459.800781 961.191406 Z M 996.515625 1123.308594 C 921.378906 1123.308594 846.742188 1107.921875 774.683594 1077.570312 C 704.945312 1048.199219 637.449219 1004.761719 574.070312 948.460938 C 569.273438 944.199219 568.839844 936.851562 573.101562 932.050781 C 577.363281 927.261719 584.707031 926.820312 589.503906 931.078125 C 713.953125 1041.640625 854.691406 1100.070312 996.515625 1100.070312 C 1139.550781 1100.070312 1281.359375 1040.679688 1406.609375 928.328125 C 1411.390625 924.039062 1418.730469 924.441406 1423.019531 929.21875 C 1427.308594 933.988281 1426.910156 941.339844 1422.128906 945.628906 C 1358.371094 1002.820312 1290.410156 1046.960938 1220.140625 1076.808594 C 1147.519531 1107.671875 1072.28125 1123.308594 996.515625 1123.308594" fill="inherit"/></g></svg>