<?xml version="1.0" encoding="UTF-8" standalone="no"?><svg xmlns="http://www.w3.org/2000/svg" xmlns:xlink="http://www.w3.org/1999/xlink" clip-rule="evenodd" fill="#000000" fill-rule="evenodd" height="1711" image-rendering="optimizeQuality" preserveAspectRatio="xMidYMid meet" shape-rendering="geometricPrecision" text-rendering="geometricPrecision" version="1" viewBox="636.0 313.0 1061.0 1711.0" width="1061" zoomAndPan="magnify"><g fill-rule="nonzero"><g><g id="change1_1"><path d="M1207 676l-382 0c-52,0 -99,21 -133,55 -34,34 -56,82 -56,134 0,52 22,99 56,133 34,34 81,56 133,56l446 0 237 0c30,0 57,12 77,32 20,19 32,47 32,77 0,29 -12,57 -32,76 -20,20 -47,32 -77,32l-556 0c-52,0 -99,22 -133,56 -34,34 -56,81 -56,133 0,52 22,100 56,134 34,34 81,55 133,55l378 0c29,0 57,13 76,32 20,20 32,47 32,77 0,30 -12,57 -32,77 -19,20 -47,32 -76,32l-648 0c-22,0 -40,18 -40,40 0,22 18,40 40,40l648 0c52,0 99,-21 133,-55 34,-34 55,-82 55,-134 0,-52 -21,-99 -55,-133 -34,-34 -81,-56 -133,-56l-378 0c-30,0 -57,-12 -77,-32 -19,-19 -32,-47 -32,-77 0,-30 13,-57 32,-77 20,-19 47,-32 77,-32l556 0c52,0 99,-21 133,-55 35,-34 56,-81 56,-133 0,-52 -21,-100 -56,-134 -34,-34 -81,-55 -133,-55l-237 0 -446 0c-29,0 -57,-13 -76,-32 -20,-20 -33,-47 -33,-77 0,-30 13,-58 33,-77 19,-20 47,-32 76,-32l382 0 0 -80z" fill="#cb6ce6"/></g><g id="change2_1"><path d="M1205 756l1 0 0 0 1 0 0 0 1 0 0 0 1 0 1 -1 0 0 0 0 1 0 0 0c3,0 7,-1 10,-3l1 0 0 0 0 0 1 0 0 -1 1 0 0 0 1 -1 0 0c4,-2 7,-5 10,-8l1 -1 0 0 0 0 1 -1 0 0 0 0 1 -1 0 0c0,-1 1,-2 1,-3 6,-7 14,-18 23,-30 46,-60 116,-152 116,-220 0,-47 -19,-91 -50,-122 -32,-31 -75,-51 -123,-51 -48,0 -91,20 -122,51 -32,31 -51,75 -51,122 0,68 70,160 116,220 9,12 17,23 23,30 0,1 1,2 1,3l0 0 1 1 0 0 1 0 0 1 0 0 0 0 1 1c3,3 6,6 10,8l0 0 1 1 0 0 1 0 0 1 1 0 0 0 1 0 0 0c3,2 7,3 10,3l0 0 1 0 0 0 0 0 1 1 1 0 0 0 1 0 0 0 1 0 0 0 1 0z" fill="#c6a7ed"/></g><g id="change2_2"><path d="M727 2008c15,16 41,16 56,0 16,-15 16,-41 0,-56l-44 -45 44 -44c16,-16 16,-41 0,-57 -15,-15 -41,-15 -56,0l-73 73 0 0c-16,16 -16,41 0,57l0 0 73 72z" fill="#c6a7ed"/></g><g id="change3_2"><path d="M1205 432c22,0 40,18 40,40 0,22 -18,40 -40,40 -22,0 -40,-18 -40,-40 0,-22 18,-40 40,-40z" fill="#ffffff"/></g></g><g><g id="change4_1"><path d="M1207 676l-2 0 0 80 2 0 0 -80zm-2 378l66 0 237 0c30,0 57,12 77,32 20,19 32,47 32,77 0,29 -12,57 -32,76 -20,20 -47,32 -77,32l-303 0 0 80 303 0c52,0 99,-21 133,-55 35,-34 56,-81 56,-133 0,-52 -21,-100 -56,-134 -34,-34 -81,-55 -133,-55l-237 0 -66 0 0 80zm0 595l125 0c29,0 57,13 76,32 20,20 32,47 32,77 0,30 -12,57 -32,77 -19,20 -47,32 -76,32l-125 0 0 80 125 0c52,0 99,-21 133,-55 34,-34 55,-82 55,-134 0,-52 -21,-99 -55,-133 -34,-34 -81,-56 -133,-56l-125 0 0 80z" fill="#c6a7ed"/></g><g id="change5_1"><path d="M1205 756l1 0 0 0 1 0 0 0 1 0 0 0 1 0 1 -1 0 0 0 0 1 0 0 0c3,0 7,-1 10,-3l1 0 0 0 0 0 1 0 0 -1 1 0 0 0 1 -1 0 0c4,-2 7,-5 10,-8l1 -1 0 0 0 0 1 -1 0 0 0 0 1 -1 0 0c0,-1 1,-2 1,-3 6,-7 14,-18 23,-30 46,-60 116,-152 116,-220 0,-47 -19,-91 -50,-122 -32,-31 -75,-51 -123,-51l0 443z" fill="#cb6ce6"/></g><g id="change3_1"><path d="M1205 432c22,0 40,18 40,40 0,22 -18,40 -40,40l0 -80z" fill="#ffffff"/></g></g></g><path d="M0 0H2333V2333H0z" fill="none"/></svg>